<?xml version="1.0" encoding="UTF-8"?>
<svg id="Round" xmlns="http://www.w3.org/2000/svg" viewBox="0 0 2000 2000">
  <defs>
    <style>
      .cls-1 {
        stroke: #000;
      }

      .cls-1, .cls-2 {
        fill: none;
        stroke-linecap: round;
        stroke-miterlimit: 10;
        stroke-width: 100px;
      }

      .cls-2 {
        stroke: #face64;
      }

      .cls-3 {
        fill: #face64;
      }
    </style>
  </defs>
  <g id="rightFace">
    <path d="M1447.22,1663.43c42.38-28.63,82.24-61.52,118.47-97.75,36.23-36.23,69.11-76.08,97.75-118.47,28.89-42.76,53.7-88.47,73.74-135.85,41.69-98.56,62.83-203.32,62.83-311.37s-21.14-212.8-62.83-311.37c-20.04-47.38-44.85-93.09-73.74-135.85-28.63-42.38-61.52-82.24-97.75-118.47-36.23-36.23-76.08-69.11-118.47-97.75-42.76-28.89-88.47-53.7-135.85-73.74-98.56-41.69-203.32-62.83-311.37-62.83v1600c108.04,0,212.8-21.14,311.37-62.83,47.38-20.04,93.09-44.85,135.85-73.74Z"/>
  </g>
  <g id="leftFace">
    <path class="cls-3" d="M552.78,336.57c-42.38,28.63-82.24,61.52-118.47,97.75-36.23,36.23-69.11,76.08-97.75,118.47-28.89,42.76-53.7,88.47-73.74,135.85-41.69,98.56-62.83,203.32-62.83,311.37s21.14,212.8,62.83,311.37c20.04,47.38,44.85,93.09,73.74,135.85,28.63,42.38,61.52,82.24,97.75,118.47,36.23,36.23,76.08,69.11,118.47,97.75,42.76,28.89,88.47,53.7,135.85,73.74,98.56,41.69,203.32,62.83,311.37,62.83V200c-108.04,0-212.8,21.14-311.37,62.83-47.38,20.04-93.09,44.85-135.85,73.74Z"/>
  </g>
  <path id="faceRight" class="cls-3" d="M1311.37,262.83c47.38,20.04,93.09,44.85,135.85,73.74,42.38,28.63,82.24,61.52,118.47,97.75,36.23,36.23,69.11,76.08,97.75,118.47,28.89,42.76,53.7,88.47,73.74,135.85,41.69,98.56,62.83,203.32,62.83,311.37s-21.14,212.8-62.83,311.37c-20.04,47.38-44.85,93.09-73.74,135.85-28.63,42.38-61.52,82.24-97.75,118.47-36.23,36.23-76.08,69.11-118.47,97.75-42.76,28.89-88.47,53.7-135.85,73.74-98.56,41.69-203.32,62.83-311.37,62.83v100c497.06,0,900-402.94,900-900S1497.06,100,1000,100v100c108.04,0,212.8,21.14,311.37,62.83Z"/>
  <path id="faceLeft" d="M688.63,1737.17c-47.38-20.04-93.09-44.85-135.85-73.74-42.38-28.63-82.24-61.52-118.47-97.75-36.23-36.23-69.11-76.08-97.75-118.47-28.89-42.76-53.7-88.47-73.74-135.85-41.69-98.56-62.83-203.32-62.83-311.37s21.14-212.8,62.83-311.37c20.04-47.38,44.85-93.09,73.74-135.85,28.63-42.38,61.52-82.24,97.75-118.47,36.23-36.23,76.08-69.11,118.47-97.75,42.76-28.89,88.47-53.7,135.85-73.74,98.56-41.69,203.32-62.83,311.37-62.83v-100c-497.06,0-900,402.94-900,900s402.94,900,900,900v-100c-108.04,0-212.8-21.14-311.37-62.83Z"/>
  <line id="eye-cross-2" class="cls-1" x1="400" y1="1100" x2="800" y2="700"/>
  <line id="eye-cross-1" class="cls-1" x1="800" y1="1100" x2="400" y2="700"/>
  <circle id="eye-circle" class="cls-2" cx="1400" cy="900" r="200"/>
</svg>